<svg xmlns="http://www.w3.org/2000/svg" xmlns:xlink="http://www.w3.org/1999/xlink" version="1.1" x="0px" y="0px" width="197.967px" height="241px" viewBox="0 0 250.967 311" enable-background="new 0 0 650.967 311" xml:space="preserve">
	<g>
		<path fill="#231F20" d="M198.816,235.055c0,20.464,6.824,39.018,17.927,52.745c11.103-13.728,17.926-32.281,17.926-52.745  c0-20.471-6.823-39.041-17.926-52.769C205.641,196.014,198.816,214.584,198.816,235.055z"/>
		<path fill="#231F20" d="M15.434,235.055c0,20.464,6.824,39.018,17.926,52.745c11.103-13.728,17.927-32.281,17.927-52.745  c0-20.471-6.824-39.041-17.927-52.769C22.258,196.014,15.434,214.584,15.434,235.055z"/>
		<g>
			<path fill="#231F20" d="M123.803,227.627c-55.242,0-100.177-44.936-100.177-100.194c0-55.211,44.935-100.146,100.177-100.146   c55.227,0,100.161,44.935,100.161,100.146C223.964,182.691,179.029,227.627,123.803,227.627z M123.803,32.839   c-52.173,0-94.611,42.437-94.611,94.594c0,52.172,42.438,94.619,94.611,94.619c52.157,0,94.594-42.446,94.594-94.619   C218.396,75.276,175.96,32.839,123.803,32.839z"/>
		</g>
		<path fill="#231F20" d="M122.61,30.055c-45.174,0-83.318,31.114-95.74,73.813h67.919c16.989-9.439,43.312-38.198,55.067-38.405  c26.485-0.462,40.213,23.239,40.213,23.239l29.568,36.322l2.625-0.342C217.744,71.649,174.878,30.055,122.61,30.055z"/>
		<rect x="224.982" y="118.859" fill="#231F20" width="16.367" height="36.124"/>
		<g>
			<polygon fill="#B33E2C" points="125.775,103.748 125.775,119.623 125.775,155.77 142.636,155.77 142.636,119.623   198.005,119.623 198.005,155.77 214.882,155.77 214.882,119.623 231.249,119.623 231.249,103.748  "/>
			<rect x="142.636" y="155.77" fill="#B33E2C" width="55.369" height="18.301"/>
		</g>
		<g>
			<polygon fill="#FF7756" points="20.302,103.748 20.302,119.623 20.302,155.77 37.161,155.77 37.161,119.623 92.531,119.623   92.531,155.77 109.408,155.77 109.408,119.623 125.775,119.623 125.775,103.748  "/>
			<rect x="37.161" y="155.77" fill="#FF7756" width="55.37" height="18.301"/>
		</g>
		<g>
			<rect x="200.52" y="177.141" fill="#FF7756" width="6.934" height="16.399"/>
			<rect x="207.453" y="193.54" fill="#FF7756" width="18.579" height="8.907"/>
			<rect x="226.032" y="177.141" fill="#FF7756" width="6.951" height="16.399"/>
		</g>
	</g>
</svg>